<svg xmlns="http://www.w3.org/2000/svg" version="1.1" xmlns:xlink="http://www.w3.org/1999/xlink" width="1000" height="1000"><metadata><rdf:RDF xmlns:rdf="http://www.w3.org/1999/02/22-rdf-syntax-ns#" xmlns:dc="http://purl.org/dc/elements/1.1/"><rdf:Description><dc:creator>RealFaviconGenerator</dc:creator><dc:source>https://realfavicongenerator.net</dc:source></rdf:Description></rdf:RDF></metadata><style>
    #light-icon {
      display: inline;
    }
    #dark-icon {
      display: none;
    }

    @media (prefers-color-scheme: dark) {
      #light-icon {
        display: none;
      }
      #dark-icon {
        display: inline;
      }
    }
  </style><g id="light-icon"><svg xmlns="http://www.w3.org/2000/svg" version="1.1" xmlns:xlink="http://www.w3.org/1999/xlink" width="1000" height="1000"><g><g transform="matrix(0.48828125,0,0,0.48828125,0,1.1368683772161603e-13)"><svg xmlns="http://www.w3.org/2000/svg" direction="ltr" width="2048" height="2047.9999999999995" viewBox="10133.534576416016 2554.6096533181176 2048 2047.9999999999995" stroke-linecap="round" stroke-linejoin="round" data-color-mode="light" class="tl-container tl-theme__force-sRGB tl-theme__light" style="background-color: transparent;"><defs></defs><g transform="matrix(1, 0, 0, 1, 10133.5346, 2554.6097)" opacity="1"><g data-lovart-layer-name="SVG 1"><g transform="scale(1.4143646408839778, 1.4143646408839778)"><g>
<path xmlns="http://www.w3.org/2000/svg" fill="#000000" d="   M 762.01 181.86   Q 772.67 182.47 772.99 182.50   Q 777.40 182.90 795.05 184.89   C 800.70 185.53 806.32 186.73 812.27 187.35   Q 814.18 187.55 819.15 188.50   Q 845.82 193.62 868.87 199.89   C 873.60 201.18 878.62 203.14 883.17 204.50   Q 904.20 210.80 921.53 217.76   Q 950.19 229.28 978.86 244.66   Q 999.29 255.63 1014.87 265.98   Q 1024.90 272.65 1025.98 273.35   Q 1033.49 278.27 1037.03 280.91   Q 1061.19 298.94 1065.72 302.93   Q 1073.56 309.85 1079.25 314.46   C 1087.74 321.33 1094.10 327.94 1101.86 335.00   Q 1105.83 338.60 1111.01 344.14   Q 1117.86 351.47 1128.21 362.05   C 1133.39 367.36 1137.12 373.08 1142.11 378.66   Q 1145.42 382.37 1148.83 386.78   Q 1162.68 404.71 1169.73 414.73   Q 1175.55 422.99 1186.44 440.16   Q 1195.53 454.49 1201.89 466.37   Q 1211.47 484.27 1219.36 501.36   C 1224.88 513.31 1228.64 524.59 1233.44 535.80   Q 1236.91 543.90 1241.09 557.71   Q 1245.49 572.22 1247.77 579.96   Q 1249.34 585.28 1252.40 599.43   C 1254.87 610.86 1258.12 622.18 1259.79 633.54   Q 1262.63 652.78 1264.78 675.12   Q 1265.91 686.88 1265.90 696.92   C 1265.89 706.31 1266.59 715.53 1266.45 726.03   Q 1266.04 757.10 1265.47 763.51   Q 1264.54 773.83 1264.48 775.01   Q 1264.25 779.71 1263.50 783.93   Q 1263.47 784.07 1262.57 792.88   C 1260.31 814.99 1256.20 832.76 1249.85 859.41   Q 1247.52 869.14 1244.77 877.57   Q 1239.59 893.45 1238.93 895.54   C 1235.13 907.52 1231.64 915.90 1226.76 928.72   Q 1223.62 936.95 1220.85 942.59   C 1217.75 948.89 1215.69 954.31 1212.31 960.80   Q 1196.45 991.23 1191.85 998.62   Q 1177.59 1021.52 1169.68 1032.71   Q 1162.80 1042.45 1159.16 1047.81   C 1155.21 1053.62 1150.64 1058.18 1146.86 1063.18   C 1143.16 1068.08 1138.09 1072.75 1134.42 1078.39   A 6.25 6.14 85.1 0 1 1133.46 1079.55   C 1128.36 1084.38 1124.94 1088.81 1119.91 1093.74   C 1115.89 1097.67 1111.56 1103.44 1107.44 1106.94   C 1104.45 1109.49 1102.36 1112.65 1098.99 1115.14   C 1094.28 1118.62 1090.52 1123.98 1086.49 1127.13   C 1083.29 1129.64 1080.26 1133.04 1076.26 1136.01   C 1071.25 1139.74 1066.62 1143.89 1061.56 1147.58   Q 1059.57 1149.03 1058.19 1150.23   Q 1049.80 1157.58 1038.50 1164.69   C 1036.49 1165.96 1034.60 1168.17 1032.40 1169.45   Q 1028.81 1171.54 1027.53 1172.33   C 1024.01 1174.50 1019.86 1178.51 1016.97 1180.23   C 1005.71 1186.95 1000.74 1190.31 994.02 1193.87   C 987.53 1197.31 980.99 1201.80 974.93 1204.66   Q 964.65 1209.51 962.51 1210.70   C 953.64 1215.59 947.67 1217.78 936.79 1222.86   C 927.76 1227.08 921.18 1229.34 908.17 1234.27   Q 900.30 1237.25 892.86 1239.50   C 881.17 1243.02 870.03 1246.89 859.78 1249.32   Q 832.50 1255.79 829.63 1256.39   Q 811.33 1260.25 794.00 1262.28   C 781.04 1263.79 764.03 1265.33 747.97 1265.66   Q 708.01 1266.47 672.75 1264.17   Q 652.81 1262.86 630.79 1259.02   Q 620.78 1257.27 610.69 1254.69   C 601.84 1252.42 593.06 1250.90 584.01 1248.31   Q 583.60 1248.19 558.31 1240.63   Q 548.72 1237.77 539.47 1234.24   Q 521.17 1227.26 520.82 1227.14   C 513.10 1224.44 506.99 1221.01 497.78 1216.93   C 488.98 1213.04 481.40 1209.00 471.96 1204.30   Q 468.55 1202.61 461.92 1198.71   Q 439.85 1185.73 439.79 1185.70   Q 431.87 1181.47 426.18 1176.91   C 422.14 1173.68 420.45 1172.90 415.85 1170.19   C 413.11 1168.57 410.01 1165.63 407.01 1163.67   C 398.89 1158.39 391.04 1151.01 383.76 1145.70   Q 383.75 1145.69 372.24 1136.54   C 367.68 1132.90 364.14 1128.98 360.22 1125.85   C 356.22 1122.64 352.53 1118.39 348.91 1115.50   C 344.97 1112.36 342.43 1108.33 339.00 1105.11   Q 335.94 1102.25 326.12 1092.38   Q 324.18 1090.44 321.03 1086.64   Q 320.21 1085.66 315.96 1080.70   Q 295.56 1056.96 288.53 1047.21   Q 282.86 1039.34 281.81 1037.95   Q 278.11 1033.08 275.31 1028.53   Q 274.70 1027.54 260.02 1005.28   Q 255.65 998.65 252.97 993.44   Q 250.46 988.58 248.50 985.38   C 244.33 978.54 239.09 967.69 236.85 963.74   Q 234.27 959.20 230.13 949.96   Q 222.54 933.02 214.11 911.82   C 209.53 900.29 206.99 888.74 202.91 876.84   Q 201.39 872.41 200.10 867.38   Q 194.27 844.59 189.97 824.18   Q 188.11 815.35 187.28 808.90   C 186.37 801.79 185.28 795.28 184.90 788.34   C 184.31 777.56 182.53 766.96 182.25 756.12   C 181.87 741.49 181.28 730.52 181.60 715.95   Q 182.35 682.19 186.49 646.76   Q 188.10 632.93 190.53 621.25   Q 194.55 601.88 199.71 581.86   Q 201.32 575.58 205.54 563.05   Q 207.08 558.49 211.53 544.27   Q 214.41 535.06 224.04 511.75   Q 228.63 500.62 243.08 472.09   C 247.72 462.92 251.96 456.47 256.93 447.44   Q 260.27 441.38 273.46 421.75   Q 284.39 405.49 291.08 397.09   C 308.68 375.00 325.72 353.85 344.40 336.40   Q 356.28 325.31 366.32 316.09   Q 370.57 312.19 373.87 309.64   C 377.33 306.97 380.45 303.99 384.00 301.10   Q 397.48 290.15 413.83 278.84   Q 415.13 277.94 425.61 270.86   Q 447.29 256.24 468.14 245.15   Q 496.04 230.31 513.24 223.27   Q 541.16 211.84 547.86 209.89   C 559.86 206.41 571.46 201.44 585.37 198.26   Q 591.29 196.91 616.43 191.04   Q 624.33 189.19 632.19 187.96   Q 644.41 186.05 648.09 185.63   Q 682.99 181.67 705.01 180.86   Q 732.83 179.83 756.49 181.48   Q 761.72 181.85 762.01 181.86   Z   M 582.02 507.29   C 579.94 506.00 577.54 502.85 573.67 498.38   Q 569.96 494.11 567.85 491.99   Q 559.00 483.13 546.33 469.93   Q 535.44 458.59 516.13 440.60   Q 497.28 423.05 472.26 406.23   Q 467.35 402.92 457.33 399.07   C 450.26 396.36 445.04 396.46 438.70 400.18   Q 434.88 402.42 433.20 404.44   C 425.97 413.11 422.37 422.20 417.48 434.85   Q 414.32 443.03 411.35 454.98   Q 405.26 479.53 402.89 493.63   Q 402.07 498.52 399.15 523.86   C 398.38 530.47 398.50 536.48 397.98 542.43   Q 397.35 549.63 397.02 556.35   C 396.47 567.62 396.00 572.04 395.90 582.55   Q 395.65 607.46 398.35 636.00   Q 398.74 640.22 397.31 641.80   Q 394.61 644.79 392.00 648.50   Q 378.01 668.42 367.99 689.48   Q 355.37 716.00 348.00 744.59   Q 345.24 755.33 343.41 767.67   Q 341.28 782.10 340.66 791.04   Q 339.40 809.39 340.44 837.18   C 340.78 846.18 342.32 854.45 343.92 865.32   C 346.41 882.22 351.31 897.03 357.91 916.35   C 359.52 921.07 361.76 925.16 363.61 929.98   Q 365.42 934.65 368.02 940.08   C 376.01 956.78 385.99 973.93 397.85 989.49   Q 400.25 992.64 405.13 999.37   Q 412.28 1009.23 422.28 1019.65   C 430.00 1027.69 434.63 1032.78 441.84 1038.90   C 448.96 1044.94 458.20 1053.82 466.97 1060.45   C 478.05 1068.82 484.52 1072.90 497.82 1081.43   Q 505.33 1086.25 516.76 1092.31   Q 535.79 1102.40 554.43 1110.54   Q 567.76 1116.36 583.97 1121.53   Q 601.41 1127.09 615.62 1130.97   C 623.26 1133.06 631.57 1134.44 638.49 1135.94   C 650.04 1138.43 659.35 1139.31 674.41 1141.38   C 676.71 1141.70 680.14 1141.59 682.85 1141.97   Q 693.14 1143.41 698.25 1143.67   C 720.82 1144.82 744.30 1144.66 767.99 1141.94   Q 790.56 1139.34 799.87 1137.83   Q 816.99 1135.06 840.04 1128.79   Q 850.53 1125.94 862.39 1121.81   Q 880.80 1115.40 884.43 1113.92   Q 908.37 1104.11 916.41 1099.83   Q 925.27 1095.11 933.01 1090.99   Q 942.69 1085.84 949.30 1081.59   Q 967.97 1069.55 972.82 1066.04   Q 982.20 1059.27 985.79 1056.29   Q 993.14 1050.19 1005.31 1039.57   C 1009.77 1035.67 1013.32 1031.45 1017.39 1027.63   C 1027.44 1018.22 1036.65 1007.23 1045.00 996.51   Q 1049.57 990.64 1058.66 977.23   C 1068.37 962.89 1075.37 948.76 1083.56 931.31   Q 1089.11 919.47 1092.63 908.44   Q 1096.98 894.83 1099.54 884.80   Q 1100.72 880.18 1103.09 867.92   Q 1104.93 858.40 1105.57 853.01   Q 1106.97 841.09 1107.13 837.97   Q 1107.88 823.13 1107.51 801.23   C 1107.29 788.76 1105.84 774.72 1103.97 764.50   C 1101.39 750.40 1096.65 735.04 1091.36 717.45   C 1087.11 703.31 1080.10 689.80 1071.63 673.87   Q 1063.51 658.60 1050.36 640.70   A 3.35 3.33 -70.4 0 1 1049.81 639.53   Q 1049.07 636.73 1049.42 634.24   Q 1050.70 625.38 1050.86 618.19   Q 1051.52 588.14 1050.72 558.47   C 1050.60 554.12 1049.88 549.17 1049.73 545.50   Q 1048.93 525.22 1047.29 511.47   Q 1046.55 505.19 1044.47 490.27   Q 1043.60 484.05 1041.67 475.79   Q 1039.39 466.05 1034.68 449.31   Q 1031.81 439.10 1023.23 419.36   Q 1021.31 414.95 1017.55 409.04   Q 1011.01 398.79 999.46 397.36   C 992.64 396.52 983.98 400.64 978.28 404.29   C 971.70 408.51 965.05 412.64 958.53 418.06   Q 950.99 424.33 948.17 426.57   Q 939.99 433.07 935.05 437.57   C 918.88 452.27 903.12 467.27 888.15 483.57   Q 883.49 488.65 868.36 505.10   Q 866.21 507.44 863.62 507.51   A 1.93 1.86 -35.8 0 1 862.98 507.42   Q 846.70 502.09 826.96 496.34   C 819.68 494.22 813.35 493.43 807.27 492.24   Q 800.74 490.96 796.24 490.38   Q 780.57 488.37 763.94 486.03   C 755.62 484.86 748.57 484.71 741.07 484.11   C 723.66 482.72 707.38 484.24 691.14 484.94   C 683.04 485.29 676.69 487.10 669.14 487.96   C 662.32 488.73 649.88 490.06 640.03 492.25   C 634.42 493.49 625.97 494.45 619.61 496.62   Q 614.41 498.39 611.33 499.15   Q 597.05 502.68 584.13 507.49   A 2.45 2.42 -39.2 0 1 582.02 507.29   Z"></path>
<path xmlns="http://www.w3.org/2000/svg" fill="#000000" d="   M 745.19 970.19   Q 745.49 969.30 746.02 968.77   Q 764.48 950.39 776.78 937.53   Q 786.64 927.22 812.90 900.41   Q 819.63 893.54 828.98 894.08   Q 844.42 894.96 847.77 910.32   Q 848.63 914.22 848.11 916.34   C 846.47 923.12 843.08 927.92 837.72 932.81   C 833.33 936.81 830.11 941.06 826.29 944.32   Q 823.32 946.85 821.25 949.29   C 816.49 954.93 811.70 959.25 801.86 969.19   Q 799.19 971.88 797.11 974.29   C 795.09 976.64 792.67 978.47 790.47 980.75   C 783.43 988.05 779.28 992.04 772.65 999.20   C 763.97 1008.58 755.11 1016.80 744.49 1028.09   Q 738.12 1034.85 734.64 1036.39   C 725.57 1040.40 715.27 1039.70 708.07 1032.42   Q 700.23 1024.51 691.99 1016.18   Q 685.62 1009.72 684.59 1008.57   C 680.82 1004.32 677.24 1001.56 673.75 997.50   C 669.84 992.94 665.40 989.01 660.10 983.52   Q 643.20 966.01 633.38 956.29   Q 630.64 953.59 626.89 949.44   C 624.14 946.40 621.61 944.35 618.33 940.91   Q 610.08 932.26 607.73 929.97   Q 601.04 923.46 600.07 915.20   C 599.42 909.68 602.07 902.32 606.22 898.56   Q 609.27 895.80 614.49 894.74   Q 627.65 892.08 636.67 902.28   Q 641.01 907.18 644.31 910.30   C 652.66 918.21 663.35 929.75 684.42 951.29   Q 686.35 953.27 696.62 963.46   C 698.69 965.52 700.92 967.06 702.98 968.88   A 0.71 0.70 -69.2 0 0 704.15 968.35   Q 704.12 813.94 704.15 778.16   Q 704.16 770.61 704.27 769.33   C 705.53 755.07 719.72 749.57 731.62 753.74   C 737.57 755.83 741.20 760.93 742.66 766.58   Q 743.65 770.39 743.65 777.25   Q 743.64 945.92 743.60 950.25   Q 743.50 961.36 743.95 970.02   A 0.64 0.64 0.0 0 0 745.19 970.19   Z"></path>
</g></g></g></g></svg></g></g></svg></g><g id="dark-icon"><svg xmlns="http://www.w3.org/2000/svg" version="1.1" xmlns:xlink="http://www.w3.org/1999/xlink" width="1000" height="1000"><g clip-path="url(#SvgjsClipPath1092)"><rect width="1000" height="1000" fill="#ffffff"></rect><g transform="matrix(0.48828125,0,0,0.48828125,0,1.1368683772161603e-13)"><svg xmlns="http://www.w3.org/2000/svg" direction="ltr" width="2048" height="2047.9999999999995" viewBox="10133.534576416016 2554.6096533181176 2048 2047.9999999999995" stroke-linecap="round" stroke-linejoin="round" data-color-mode="light" class="tl-container tl-theme__force-sRGB tl-theme__light" style="background-color: transparent;"><defs><clipPath id="SvgjsClipPath1092"><rect width="1000" height="1000" x="0" y="0" rx="500" ry="500"></rect></clipPath></defs><g transform="matrix(1, 0, 0, 1, 10133.5346, 2554.6097)" opacity="1"><g data-lovart-layer-name="SVG 1"><g transform="scale(1.4143646408839778, 1.4143646408839778)"><g>
<path xmlns="http://www.w3.org/2000/svg" fill="#000000" d="   M 762.01 181.86   Q 772.67 182.47 772.99 182.50   Q 777.40 182.90 795.05 184.89   C 800.70 185.53 806.32 186.73 812.27 187.35   Q 814.18 187.55 819.15 188.50   Q 845.82 193.62 868.87 199.89   C 873.60 201.18 878.62 203.14 883.17 204.50   Q 904.20 210.80 921.53 217.76   Q 950.19 229.28 978.86 244.66   Q 999.29 255.63 1014.87 265.98   Q 1024.90 272.65 1025.98 273.35   Q 1033.49 278.27 1037.03 280.91   Q 1061.19 298.94 1065.72 302.93   Q 1073.56 309.85 1079.25 314.46   C 1087.74 321.33 1094.10 327.94 1101.86 335.00   Q 1105.83 338.60 1111.01 344.14   Q 1117.86 351.47 1128.21 362.05   C 1133.39 367.36 1137.12 373.08 1142.11 378.66   Q 1145.42 382.37 1148.83 386.78   Q 1162.68 404.71 1169.73 414.73   Q 1175.55 422.99 1186.44 440.16   Q 1195.53 454.49 1201.89 466.37   Q 1211.47 484.27 1219.36 501.36   C 1224.88 513.31 1228.64 524.59 1233.44 535.80   Q 1236.91 543.90 1241.09 557.71   Q 1245.49 572.22 1247.77 579.96   Q 1249.34 585.28 1252.40 599.43   C 1254.87 610.86 1258.12 622.18 1259.79 633.54   Q 1262.63 652.78 1264.78 675.12   Q 1265.91 686.88 1265.90 696.92   C 1265.89 706.31 1266.59 715.53 1266.45 726.03   Q 1266.04 757.10 1265.47 763.51   Q 1264.54 773.83 1264.48 775.01   Q 1264.25 779.71 1263.50 783.93   Q 1263.47 784.07 1262.57 792.88   C 1260.31 814.99 1256.20 832.76 1249.85 859.41   Q 1247.52 869.14 1244.77 877.57   Q 1239.59 893.45 1238.93 895.54   C 1235.13 907.52 1231.64 915.90 1226.76 928.72   Q 1223.62 936.95 1220.85 942.59   C 1217.75 948.89 1215.69 954.31 1212.31 960.80   Q 1196.45 991.23 1191.85 998.62   Q 1177.59 1021.52 1169.68 1032.71   Q 1162.80 1042.45 1159.16 1047.81   C 1155.21 1053.62 1150.64 1058.18 1146.86 1063.18   C 1143.16 1068.08 1138.09 1072.75 1134.42 1078.39   A 6.25 6.14 85.1 0 1 1133.46 1079.55   C 1128.36 1084.38 1124.94 1088.81 1119.91 1093.74   C 1115.89 1097.67 1111.56 1103.44 1107.44 1106.94   C 1104.45 1109.49 1102.36 1112.65 1098.99 1115.14   C 1094.28 1118.62 1090.52 1123.98 1086.49 1127.13   C 1083.29 1129.64 1080.26 1133.04 1076.26 1136.01   C 1071.25 1139.74 1066.62 1143.89 1061.56 1147.58   Q 1059.57 1149.03 1058.19 1150.23   Q 1049.80 1157.58 1038.50 1164.69   C 1036.49 1165.96 1034.60 1168.17 1032.40 1169.45   Q 1028.81 1171.54 1027.53 1172.33   C 1024.01 1174.50 1019.86 1178.51 1016.97 1180.23   C 1005.71 1186.95 1000.74 1190.31 994.02 1193.87   C 987.53 1197.31 980.99 1201.80 974.93 1204.66   Q 964.65 1209.51 962.51 1210.70   C 953.64 1215.59 947.67 1217.78 936.79 1222.86   C 927.76 1227.08 921.18 1229.34 908.17 1234.27   Q 900.30 1237.25 892.86 1239.50   C 881.17 1243.02 870.03 1246.89 859.78 1249.32   Q 832.50 1255.79 829.63 1256.39   Q 811.33 1260.25 794.00 1262.28   C 781.04 1263.79 764.03 1265.33 747.97 1265.66   Q 708.01 1266.47 672.75 1264.17   Q 652.81 1262.86 630.79 1259.02   Q 620.78 1257.27 610.69 1254.69   C 601.84 1252.42 593.06 1250.90 584.01 1248.31   Q 583.60 1248.19 558.31 1240.63   Q 548.72 1237.77 539.47 1234.24   Q 521.17 1227.26 520.82 1227.14   C 513.10 1224.44 506.99 1221.01 497.78 1216.93   C 488.98 1213.04 481.40 1209.00 471.96 1204.30   Q 468.55 1202.61 461.92 1198.71   Q 439.85 1185.73 439.79 1185.70   Q 431.87 1181.47 426.18 1176.91   C 422.14 1173.68 420.45 1172.90 415.85 1170.19   C 413.11 1168.57 410.01 1165.63 407.01 1163.67   C 398.89 1158.39 391.04 1151.01 383.76 1145.70   Q 383.75 1145.69 372.24 1136.54   C 367.68 1132.90 364.14 1128.98 360.22 1125.85   C 356.22 1122.64 352.53 1118.39 348.91 1115.50   C 344.97 1112.36 342.43 1108.33 339.00 1105.11   Q 335.94 1102.25 326.12 1092.38   Q 324.18 1090.44 321.03 1086.64   Q 320.21 1085.66 315.96 1080.70   Q 295.56 1056.96 288.53 1047.21   Q 282.86 1039.34 281.81 1037.95   Q 278.11 1033.08 275.31 1028.53   Q 274.70 1027.54 260.02 1005.28   Q 255.65 998.65 252.97 993.44   Q 250.46 988.58 248.50 985.38   C 244.33 978.54 239.09 967.69 236.85 963.74   Q 234.27 959.20 230.13 949.96   Q 222.54 933.02 214.11 911.82   C 209.53 900.29 206.99 888.74 202.91 876.84   Q 201.39 872.41 200.10 867.38   Q 194.27 844.59 189.97 824.18   Q 188.11 815.35 187.28 808.90   C 186.37 801.79 185.28 795.28 184.90 788.34   C 184.31 777.56 182.53 766.96 182.25 756.12   C 181.87 741.49 181.28 730.52 181.60 715.95   Q 182.35 682.19 186.49 646.76   Q 188.10 632.93 190.53 621.25   Q 194.55 601.88 199.71 581.86   Q 201.32 575.58 205.54 563.05   Q 207.08 558.49 211.53 544.27   Q 214.41 535.06 224.04 511.75   Q 228.63 500.62 243.08 472.09   C 247.72 462.92 251.96 456.47 256.93 447.44   Q 260.27 441.38 273.46 421.75   Q 284.39 405.49 291.08 397.09   C 308.68 375.00 325.72 353.85 344.40 336.40   Q 356.28 325.31 366.32 316.09   Q 370.57 312.19 373.87 309.64   C 377.33 306.97 380.45 303.99 384.00 301.10   Q 397.48 290.15 413.83 278.84   Q 415.13 277.94 425.61 270.86   Q 447.29 256.24 468.14 245.15   Q 496.04 230.31 513.24 223.27   Q 541.16 211.84 547.86 209.89   C 559.86 206.41 571.46 201.44 585.37 198.26   Q 591.29 196.91 616.43 191.04   Q 624.33 189.19 632.19 187.96   Q 644.41 186.05 648.09 185.63   Q 682.99 181.67 705.01 180.86   Q 732.83 179.83 756.49 181.48   Q 761.72 181.85 762.01 181.86   Z   M 582.02 507.29   C 579.94 506.00 577.54 502.85 573.67 498.38   Q 569.96 494.11 567.85 491.99   Q 559.00 483.13 546.33 469.93   Q 535.44 458.59 516.13 440.60   Q 497.28 423.05 472.26 406.23   Q 467.35 402.92 457.33 399.07   C 450.26 396.36 445.04 396.46 438.70 400.18   Q 434.88 402.42 433.20 404.44   C 425.97 413.11 422.37 422.20 417.48 434.85   Q 414.32 443.03 411.35 454.98   Q 405.26 479.53 402.89 493.63   Q 402.07 498.52 399.15 523.86   C 398.38 530.47 398.50 536.48 397.98 542.43   Q 397.35 549.63 397.02 556.35   C 396.47 567.62 396.00 572.04 395.90 582.55   Q 395.65 607.46 398.35 636.00   Q 398.74 640.22 397.31 641.80   Q 394.61 644.79 392.00 648.50   Q 378.01 668.42 367.99 689.48   Q 355.37 716.00 348.00 744.59   Q 345.24 755.33 343.41 767.67   Q 341.28 782.10 340.66 791.04   Q 339.40 809.39 340.44 837.18   C 340.78 846.18 342.32 854.45 343.92 865.32   C 346.41 882.22 351.31 897.03 357.91 916.35   C 359.52 921.07 361.76 925.16 363.61 929.98   Q 365.42 934.65 368.02 940.08   C 376.01 956.78 385.99 973.93 397.85 989.49   Q 400.25 992.64 405.13 999.37   Q 412.28 1009.23 422.28 1019.65   C 430.00 1027.69 434.63 1032.78 441.84 1038.90   C 448.96 1044.94 458.20 1053.82 466.97 1060.45   C 478.05 1068.82 484.52 1072.90 497.82 1081.43   Q 505.33 1086.25 516.76 1092.31   Q 535.79 1102.40 554.43 1110.54   Q 567.76 1116.36 583.97 1121.53   Q 601.41 1127.09 615.62 1130.97   C 623.26 1133.06 631.57 1134.44 638.49 1135.94   C 650.04 1138.43 659.35 1139.31 674.41 1141.38   C 676.71 1141.70 680.14 1141.59 682.85 1141.97   Q 693.14 1143.41 698.25 1143.67   C 720.82 1144.82 744.30 1144.66 767.99 1141.94   Q 790.56 1139.34 799.87 1137.83   Q 816.99 1135.06 840.04 1128.79   Q 850.53 1125.94 862.39 1121.81   Q 880.80 1115.40 884.43 1113.92   Q 908.37 1104.11 916.41 1099.83   Q 925.27 1095.11 933.01 1090.99   Q 942.69 1085.84 949.30 1081.59   Q 967.97 1069.55 972.82 1066.04   Q 982.20 1059.27 985.79 1056.29   Q 993.14 1050.19 1005.31 1039.57   C 1009.77 1035.67 1013.32 1031.45 1017.39 1027.63   C 1027.44 1018.22 1036.65 1007.23 1045.00 996.51   Q 1049.57 990.64 1058.66 977.23   C 1068.37 962.89 1075.37 948.76 1083.56 931.31   Q 1089.11 919.47 1092.63 908.44   Q 1096.98 894.83 1099.54 884.80   Q 1100.72 880.18 1103.09 867.92   Q 1104.93 858.40 1105.57 853.01   Q 1106.97 841.09 1107.13 837.97   Q 1107.88 823.13 1107.51 801.23   C 1107.29 788.76 1105.84 774.72 1103.97 764.50   C 1101.39 750.40 1096.65 735.04 1091.36 717.45   C 1087.11 703.31 1080.10 689.80 1071.63 673.87   Q 1063.51 658.60 1050.36 640.70   A 3.35 3.33 -70.4 0 1 1049.81 639.53   Q 1049.07 636.73 1049.42 634.24   Q 1050.70 625.38 1050.86 618.19   Q 1051.52 588.14 1050.72 558.47   C 1050.60 554.12 1049.88 549.17 1049.73 545.50   Q 1048.93 525.22 1047.29 511.47   Q 1046.55 505.19 1044.47 490.27   Q 1043.60 484.05 1041.67 475.79   Q 1039.39 466.05 1034.68 449.31   Q 1031.81 439.10 1023.23 419.36   Q 1021.31 414.95 1017.55 409.04   Q 1011.01 398.79 999.46 397.36   C 992.64 396.52 983.98 400.64 978.28 404.29   C 971.70 408.51 965.05 412.64 958.53 418.06   Q 950.99 424.33 948.17 426.57   Q 939.99 433.07 935.05 437.57   C 918.88 452.27 903.12 467.27 888.15 483.57   Q 883.49 488.65 868.36 505.10   Q 866.21 507.44 863.62 507.51   A 1.93 1.86 -35.8 0 1 862.98 507.42   Q 846.70 502.09 826.96 496.34   C 819.68 494.22 813.35 493.43 807.27 492.24   Q 800.74 490.96 796.24 490.38   Q 780.57 488.37 763.94 486.03   C 755.62 484.86 748.57 484.71 741.07 484.11   C 723.66 482.72 707.38 484.24 691.14 484.94   C 683.04 485.29 676.69 487.10 669.14 487.96   C 662.32 488.73 649.88 490.06 640.03 492.25   C 634.42 493.49 625.97 494.45 619.61 496.62   Q 614.41 498.39 611.33 499.15   Q 597.05 502.68 584.13 507.49   A 2.45 2.42 -39.2 0 1 582.02 507.29   Z"></path>
<path xmlns="http://www.w3.org/2000/svg" fill="#000000" d="   M 745.19 970.19   Q 745.49 969.30 746.02 968.77   Q 764.48 950.39 776.78 937.53   Q 786.64 927.22 812.90 900.41   Q 819.63 893.54 828.98 894.08   Q 844.42 894.96 847.77 910.32   Q 848.63 914.22 848.11 916.34   C 846.47 923.12 843.08 927.92 837.72 932.81   C 833.33 936.81 830.11 941.06 826.29 944.32   Q 823.32 946.85 821.25 949.29   C 816.49 954.93 811.70 959.25 801.86 969.19   Q 799.19 971.88 797.11 974.29   C 795.09 976.64 792.67 978.47 790.47 980.75   C 783.43 988.05 779.28 992.04 772.65 999.20   C 763.97 1008.58 755.11 1016.80 744.49 1028.09   Q 738.12 1034.85 734.64 1036.39   C 725.57 1040.40 715.27 1039.70 708.07 1032.42   Q 700.23 1024.51 691.99 1016.18   Q 685.62 1009.72 684.59 1008.57   C 680.82 1004.32 677.24 1001.56 673.75 997.50   C 669.84 992.94 665.40 989.01 660.10 983.52   Q 643.20 966.01 633.38 956.29   Q 630.64 953.59 626.89 949.44   C 624.14 946.40 621.61 944.35 618.33 940.91   Q 610.08 932.26 607.73 929.97   Q 601.04 923.46 600.07 915.20   C 599.42 909.68 602.07 902.32 606.22 898.56   Q 609.27 895.80 614.49 894.74   Q 627.65 892.08 636.67 902.28   Q 641.01 907.18 644.31 910.30   C 652.66 918.21 663.35 929.75 684.42 951.29   Q 686.35 953.27 696.62 963.46   C 698.69 965.52 700.92 967.06 702.98 968.88   A 0.71 0.70 -69.2 0 0 704.15 968.35   Q 704.12 813.94 704.15 778.16   Q 704.16 770.61 704.27 769.33   C 705.53 755.07 719.72 749.57 731.62 753.74   C 737.57 755.83 741.20 760.93 742.66 766.58   Q 743.65 770.39 743.65 777.25   Q 743.64 945.92 743.60 950.25   Q 743.50 961.36 743.95 970.02   A 0.64 0.64 0.0 0 0 745.19 970.19   Z"></path>
</g></g></g></g></svg></g></g></svg></g></svg>